<svg width="25" height="29" viewBox="0 0 25 29" fill="none" xmlns="http://www.w3.org/2000/svg">
<path id="Vector" d="M12.5 20.7031C14.2413 20.7031 15.724 21.8165 16.2733 23.3698H23.1667C23.5203 23.3698 23.8594 23.5103 24.1095 23.7603C24.3595 24.0104 24.5 24.3495 24.5 24.7031C24.5 25.0567 24.3595 25.3959 24.1095 25.6459C23.8594 25.896 23.5203 26.0365 23.1667 26.0365H16.272C15.996 26.8162 15.4851 27.4913 14.8096 27.9688C14.1341 28.4462 13.3272 28.7026 12.5 28.7026C11.6728 28.7026 10.8659 28.4462 10.1904 27.9688C9.51494 27.4913 9.00402 26.8162 8.728 26.0365H1.83333C1.47971 26.0365 1.14057 25.896 0.890524 25.6459C0.640476 25.3959 0.5 25.0567 0.5 24.7031C0.5 24.3495 0.640476 24.0104 0.890524 23.7603C1.14057 23.5103 1.47971 23.3698 1.83333 23.3698H8.72667C9.00268 22.5897 9.51376 21.9144 10.1895 21.4368C10.8653 20.9592 11.6725 20.7029 12.5 20.7031ZM19.1667 0.703125C19.8739 0.703125 20.5522 0.984076 21.0523 1.48417C21.5524 1.98427 21.8333 2.66255 21.8333 3.36979V14.0365C21.8333 14.7437 21.5524 15.422 21.0523 15.9221C20.5522 16.4222 19.8739 16.7031 19.1667 16.7031H15.7187L13.4427 18.9791C13.2131 19.2087 12.9076 19.3466 12.5836 19.367C12.2595 19.3874 11.9392 19.2888 11.6827 19.0898L11.5573 18.9791L9.28 16.7031H5.83333C5.16056 16.7033 4.51258 16.4493 4.01927 15.9918C3.52596 15.5343 3.22379 14.9073 3.17333 14.2365L3.16667 14.0365V3.36979C3.16667 2.66255 3.44762 1.98427 3.94772 1.48417C4.44781 0.984076 5.12609 0.703125 5.83333 0.703125H19.1667Z" fill="#F7F7F7"/>
</svg>
