<svg width="25" height="25" viewBox="0 0 25 25" fill="none" xmlns="http://www.w3.org/2000/svg">
<path id="Vector" d="M23.4438 4.70102C23.4344 4.69163 21.5303 6.57373 17.7411 10.3567L15.0824 7.69798L20.7474 2.03289C17.7661 0.238472 13.9362 0.698819 11.4528 3.18219C10.5035 4.13093 9.8204 5.3126 9.47193 6.60867C9.12345 7.90474 9.12188 9.26966 9.46737 10.5665L9.52374 10.7764L0.64562 19.6513C0.45146 19.8455 0.45146 20.1649 0.64562 20.3591L5.07372 24.7872C5.26788 24.9814 5.5873 24.9814 5.78146 24.7872L14.6533 15.9153L14.8631 15.9717C17.4843 16.6701 20.2996 15.9435 22.2537 13.9894C24.7402 11.506 25.2006 7.67606 23.4438 4.70102Z" fill="#F7F7F7"/>
</svg>
